<svg width="122" height="24" viewBox="0 0 122 24" fill="none" xmlns="http://www.w3.org/2000/svg">
<circle cx="7.5" cy="13" r="5" fill="#C91C05"/>
<path d="M21.82 21V4.68H28.756C32.692 4.68 35.092 6.624 35.092 9.744C35.092 11.496 34.396 12.768 33.124 13.536C33.82 14.088 34.252 14.88 34.516 15.984L35.716 21H31.18L30.316 16.776C30.052 15.504 29.644 15.216 28.444 15.216H26.212V21H21.82ZM28.66 8.136H26.212V11.856H28.564C29.98 11.856 30.604 11.088 30.604 9.984C30.604 8.856 29.956 8.136 28.66 8.136ZM37.1134 21V4.68H49.0414V8.136H41.5054V10.992H48.0814V14.352H41.5054V17.544H49.0414V21H37.1134ZM50.7663 21V4.68H57.3903C61.5423 4.68 64.0623 6.744 64.0623 10.272C64.0623 13.824 61.4943 15.864 57.4383 15.864H55.1583V21H50.7663ZM57.3183 8.136H55.1583V12.408H57.1983C58.8783 12.408 59.5743 11.544 59.5743 10.272C59.5743 8.976 58.8303 8.136 57.3183 8.136ZM65.5675 21V4.68H77.4955V8.136H69.9595V10.992H76.5355V14.352H69.9595V17.544H77.4955V21H65.5675ZM90.2123 21L89.2763 18.216H83.3483L82.4123 21H77.9963L83.8283 4.68H89.0603L94.8923 21H90.2123ZM85.8203 10.944L84.4763 14.904H88.1723L86.8283 10.944L86.3243 9.048L85.8203 10.944ZM98.149 21V8.232H93.253V4.68H107.413V8.232H102.517V21H98.149Z" fill="#E8E5E2"/>
<path d="M113 10C114.381 10 115.5 8.88071 115.5 7.5C115.5 6.11929 114.381 5 113 5C111.619 5 110.5 6.11929 110.5 7.5C110.5 8.88071 111.619 10 113 10Z" stroke="#E8E5E2" stroke-width="0.5"/>
<path d="M112.973 7.36057C113.121 7.36057 113.228 7.3339 113.293 7.28298C113.357 7.23448 113.392 7.15204 113.392 7.03564C113.392 6.92168 113.357 6.84166 113.293 6.79074C113.228 6.74224 113.121 6.71799 112.973 6.71799H112.672V7.36057H112.973ZM112.672 7.80432V8.75H111.958V6.25H113.048C113.413 6.25 113.679 6.30577 113.848 6.41731C114.02 6.52643 114.104 6.70102 114.104 6.94108C114.104 7.10596 114.061 7.24176 113.972 7.34845C113.883 7.45272 113.752 7.53274 113.572 7.58123C113.671 7.60306 113.757 7.64913 113.835 7.71945C113.913 7.78977 113.991 7.89646 114.069 8.04195L114.458 8.75H113.698L113.36 8.12924C113.293 8.00558 113.223 7.91828 113.153 7.87464C113.083 7.82856 112.989 7.80432 112.874 7.80432H112.672Z" fill="#E8E5E2"/>
</svg>
